<svg
    xmlns="http://www.w3.org/2000/svg"
    version="1.1"
    x="0px"
    y="0px"
    viewBox="0 0 100 100"
    width="30"
    height="30"
    enableBackground="new 0 0 100 100"
    xmlSpace="preserve"
>
    <path
    fill="white"
    d="M52.891,13.946c0.491-1.129,1.359-2.854,2.586-4.295c0.169-0.198-0.063-0.483-0.292-0.36  c-3.009,1.608-10.886,6.589-15.829,16.804c-0.123,0.253-0.506,0.121-0.444-0.154c0.396-1.759,1.215-4.508,2.825-7.119  c0.141-0.229-0.148-0.479-0.353-0.305C38.317,21.12,30.36,28.735,27.218,39.96c-0.077,0.277-0.489,0.2-0.463-0.086  c0.129-1.412,0.285-3.154,0.451-5.087c0.02-0.235-0.279-0.352-0.423-0.165c-2.472,3.212-13.266,18.761-7.83,39.005  c0.062,0.232,0.39,0.235,0.456,0.005c1.297-4.522,8.385-26.828,26.408-44.295c0.214-0.208,0.538,0.091,0.347,0.321  c-6.963,8.382-24.23,32.043-28.602,65.074c-0.038,0.284,0.367,0.379,0.458,0.107c1.578-4.688,5.431-15.367,9.557-21.104  c0.029-0.041,0.071-0.071,0.118-0.086c2.729-0.907,10.524-4.31,14.729-11.741c0.107-0.189-0.125-0.447-0.331-0.378l-4.586,1.56  c0,0,10.591-6.383,14.944-15.665c0.099-0.21-0.119-0.427-0.323-0.316l-3.145,1.7c-0.251,0.136-0.483-0.207-0.264-0.389  c3.646-3.035,10.137-9.685,13.163-20.451c0.06-0.214-0.183-0.384-0.364-0.256l-2.798,1.976c-0.233,0.165-0.504-0.149-0.308-0.356  c1.697-1.789,4.06-4.595,5.756-7.871C66.916,16.153,75.465,7.472,82.38,5.692c0.255-0.066,0.228-0.436-0.034-0.464  c-4.673-0.493-19.411-1.115-29.067,8.974C53.096,14.393,52.785,14.188,52.891,13.946z"
    />
</svg>